<svg xmlns="http://www.w3.org/2000/svg" width="750" height="1272" viewBox="0 0 750 1272">
  <metadata><?xpacket begin="﻿" id="W5M0MpCehiHzreSzNTczkc9d"?>
<x:xmpmeta xmlns:x="adobe:ns:meta/" x:xmptk="Adobe XMP Core 5.6-c138 79.159824, 2016/09/14-01:09:01        ">
   <rdf:RDF xmlns:rdf="http://www.w3.org/1999/02/22-rdf-syntax-ns#">
      <rdf:Description rdf:about=""/>
   </rdf:RDF>
</x:xmpmeta>
                                                                                                    
                                                                                                    
                                                                                                    
                                                                                                    
                                                                                                    
                                                                                                    
                                                                                                    
                                                                                                    
                                                                                                    
                                                                                                    
                                                                                                    
                                                                                                    
                                                                                                    
                                                                                                    
                                                                                                    
                                                                                                    
                                                                                                    
                                                                                                    
                                                                                                    
                                                                                                    
                           
<?xpacket end="w"?></metadata>
<defs>
    <style>
      .cls-1 {
        fill-rule: evenodd;
      }
    </style>
  </defs>
  <path class="cls-1" d="M626.33,0c80.483-.981,154.221,97.155,110.794,171.433C710.419,217.11,668.39,248.39,632.389,284.855c-46.556,47.156-89.223,96.511-130.7,148.922L413.4,515.164C386.735,549.33,353.048,619.5,306.064,629.452c23.686,61.978,84.087,94.5,127.241,137.666,76.832,76.851,149.211,154.719,218.127,239.832q32.889,29.01,65.784,58.01c51.664,64.3,20.317,159.77-36.354,193.08-56.339,33.12-135.082,1.35-162.73-33.77q-13.414-18.615-26.833-37.23-52.8-51.075-105.6-102.17C301.633,980.677,195.213,898.635,113.04,793.092L79.282,750.667C53.269,718.246-10.14,686.439,1.38,619.062c9.8-57.305,58.442-89.192,96.08-119.483l38.086-44.157c24.7-31.452,61.934-74.8,92.617-99.569l42.414-38.1c58.646-75.158,128.477-136.284,193.89-204.333,30-31.208,52.686-69.652,90.886-92.643,13.034-7.845,29.439-13.5,45.876-17.316Z"/>
</svg>
