<svg xmlns="http://www.w3.org/2000/svg" width="1149" height="1949" viewBox="0 0 1149 1949">
  <metadata><?xpacket begin="﻿" id="W5M0MpCehiHzreSzNTczkc9d"?>
<x:xmpmeta xmlns:x="adobe:ns:meta/" x:xmptk="Adobe XMP Core 5.6-c138 79.159824, 2016/09/14-01:09:01        ">
   <rdf:RDF xmlns:rdf="http://www.w3.org/1999/02/22-rdf-syntax-ns#">
      <rdf:Description rdf:about=""/>
   </rdf:RDF>
</x:xmpmeta>
                                                                                                    
                                                                                                    
                                                                                                    
                                                                                                    
                                                                                                    
                                                                                                    
                                                                                                    
                                                                                                    
                                                                                                    
                                                                                                    
                                                                                                    
                                                                                                    
                                                                                                    
                                                                                                    
                                                                                                    
                                                                                                    
                                                                                                    
                                                                                                    
                                                                                                    
                                                                                                    
                           
<?xpacket end="w"?></metadata>
<defs>
    <style>
      .cls-1 {
        fill-rule: evenodd;
      }
    </style>
  </defs>
  <path class="cls-1" d="M189.463,0C66.162-1.5-46.8,148.863,19.725,262.675c40.913,69.988,105.3,117.916,160.455,173.789C251.5,508.719,316.869,584.342,380.417,664.647q67.623,62.345,135.259,124.7c40.846,52.351,92.454,159.87,164.433,175.116-36.286,94.963-128.82,144.793-194.932,210.933-117.707,117.76-228.591,237.07-334.171,367.48q-50.385,44.445-100.781,88.89c-79.149,98.52-31.126,244.8,55.7,295.84,86.311,50.74,206.945,2.06,249.3-51.74q20.552-28.515,41.108-57.05,80.882-78.255,161.781-156.54C686.9,1502.63,849.934,1376.92,975.823,1215.2q25.857-32.49,51.717-65c39.85-49.68,136.99-98.42,119.35-201.652-15.01-87.8-89.54-136.665-147.2-183.077q-29.172-33.825-58.348-67.658C903.5,649.62,846.462,583.2,799.456,545.249l-64.978-58.372C644.633,371.716,537.65,278.058,437.438,173.79,391.481,125.973,356.723,67.067,298.2,31.839c-19.968-12.02-45.1-20.69-70.282-26.533Z"/>
</svg>
