<svg xmlns="http://www.w3.org/2000/svg" width="18375" height="1460" viewBox="0 0 18375 1460">
  <metadata><?xpacket begin="﻿" id="W5M0MpCehiHzreSzNTczkc9d"?>
<x:xmpmeta xmlns:x="adobe:ns:meta/" x:xmptk="Adobe XMP Core 5.6-c138 79.159824, 2016/09/14-01:09:01        ">
   <rdf:RDF xmlns:rdf="http://www.w3.org/1999/02/22-rdf-syntax-ns#">
      <rdf:Description rdf:about=""/>
   </rdf:RDF>
</x:xmpmeta>
                                                                                                    
                                                                                                    
                                                                                                    
                                                                                                    
                                                                                                    
                                                                                                    
                                                                                                    
                                                                                                    
                                                                                                    
                                                                                                    
                                                                                                    
                                                                                                    
                                                                                                    
                                                                                                    
                                                                                                    
                                                                                                    
                                                                                                    
                                                                                                    
                                                                                                    
                                                                                                    
                           
<?xpacket end="w"?></metadata>
<defs>
    <style>
      .cls-1 {
        fill: #f3f3f3;
        fill-rule: evenodd;
      }
    </style>
  </defs>
  <path class="cls-1" d="M18375,0V1460H0V1082.41H25.17c51.222-32.11,120.963-19.38,188.784-37.75,158.852-43.04,332.644-54.506,503.425-100.7C1194.71,814.87,1717.67,766.3,2202.48,641.9q182.475-25.17,364.98-50.345c319.85-79.679,691.18-86.75,1019.44-163.621l213.96-12.586c384.99-87.276,864.03-37.845,1258.56-125.862L5676.11,276.9c176.71-37.948,629.13-39.032,805.48,0,184.93,40.93,388.93-11.382,553.77,25.173h188.78c165.47,37.014,353.43,10.237,528.6,50.345,159.29,36.471,333.39,22.928,503.42,62.931,460.3,108.292,961.99,124.563,1409.59,239.138l226.54,25.172c326.71,83.71,701.01,108.472,1032.01,188.793q547.5,75.51,1095,151.032c123.6,28.28,254.1,12.8,364.9,37.76,182.1,41,381-.91,553.8,37.76h402.8c76,16.1,200.6,6.84,276.8,0,294.5-26.4,577.2,7.12,830.7-50.34,222.5-50.443,429.7-22.17,641.9-75.522,549.8-138.291,1096.8-206.52,1610.9-377.586,384.6-127.974,784-236.785,1157.9-390.173C18017.4,136.374,18196.5,29.443,18375,0Z"/>
</svg>
